<?xml version="1.0" encoding="UTF-8"?>
<svg id="Calque_2" data-name="Calque 2" xmlns="http://www.w3.org/2000/svg" viewBox="0 0 163.82 289.38">
  <defs>
    <style>
      .cls-1 {
        fill: #dd2c3a;
      }

      .cls-1, .cls-2, .cls-3, .cls-4 {
        stroke-width: 0px;
      }

      .cls-2 {
        fill: #202d58;
      }

      .cls-3 {
        fill: #fbbb45;
      }

      .cls-4 {
        fill: #fff;
      }
    </style>
  </defs>
  <g id="Calque_3" data-name="Calque 3">
    <g>
      <g>
        <path class="cls-2" d="M50.84,145.65c-13.21-8.76-27.18-18.44-32.84-33.24-3.48-9.11-3.37-19.18-2.38-28.88-6.77-7.85-11.04-17.76-12.34-28.04-1.15-9.01,5.68-17.07,14.76-17.4l16.01-.59-6.02-16.58c4.15-1.54,9,.14,12.12,3.27,3.13,3.13,4.78,7.45,5.73,11.76,3.79,17.18-2.1,36.04,4.73,52.26,4.16,9.88,12.52,17.33,21.04,23.84-7.2,11.51-14.4,23.02-21.6,34.53l.79-.93Z"/>
        <path class="cls-4" d="M30.26,38.1c1.57,4.19,1.45,9.2-3.21,11.22-4.56,1.97-9.56-.1-13.81-1.91l-.63,2.33c4.29.31,8.56.92,12.76,1.86,3.5.78,8.33,1.48,10.71,4.48.99,1.25,1.51,2.96.82,4.47-.59,1.28-1.89,2.09-3.15,2.61-3.38,1.4-7.42,1.43-11.02,1.5-4.96.1-9.91-.35-14.77-1.32l-.33,2.46c6.88-.36,14.42.37,20.82,3.08,2.16.92,5.19,2.93,3.76,5.67-1.65,3.16-5.92,2.82-8.91,2.6-1.61-.12-1.6,2.39,0,2.5,3.78.27,8.09.24,10.59-3.11,2.19-2.95,1-6.42-1.76-8.45-3.09-2.27-7.38-3.15-11.07-3.86-4.43-.85-8.94-1.16-13.44-.93-1.34.07-1.78,2.17-.33,2.46,5,1,10.1,1.5,15.2,1.42,4.17-.07,8.82-.15,12.68-1.91,3.3-1.5,5.48-4.82,4.14-8.46-1.56-4.25-6.06-5.76-10.06-6.81-5.44-1.44-11.02-2.33-16.64-2.74-1.19-.09-1.78,1.84-.63,2.33,5.26,2.24,11.12,4.47,16.65,1.76,5.37-2.64,5.94-8.8,4.04-13.89-.56-1.49-2.98-.85-2.41.66h0Z"/>
      </g>
      <path class="cls-2" d="M149.55,119.9c-5.47,24.32-10.95,48.65-16.42,72.97,3.78.83,7.99-1.01,9.95-4.35s1.52-7.91-1.04-10.8c7.95.51,15.53-4.93,19.01-12.1,3.49-7.17,3.39-15.66,1.34-23.36s-8.18-19.13-12.04-26.1l-.8,3.74Z"/>
      <path class="cls-2" d="M101.93,166.76c-13.42,1.73-27.16-.61-39.72-6.76-10.81,34.75-21.63,69.49-32.44,104.24-1.6,5.15-3.69,10.9-7.9,12.63-2.06.85-4.31.55-6.45.98s-4.45,1.99-4.81,4.66c-.33,2.42,1.16,4.76,2.97,5.74s3.85.93,5.82.86c8.37-.31,16.74-.61,25.1-.92,4.5-.16,9.24-.42,13.05-3.39,4.08-3.19,6.35-8.9,8.41-14.32,13.13-34.47,26.25-68.94,39.38-103.4l-3.4-.31Z"/>
      <path class="cls-2" d="M80.41,161.02c-.1,38.73,2.01,74.56,2.46,112.57.11,9,7.62,16.15,16.62,15.79l24.07-.96c4.67-.19,6.46-6.18,2.65-8.9l-12.93-4.48c.59-35.25,1.53-68.15,0-103.34-.16-3.65,7.96-7.85,5.86-10.12-1.74-1.88-4.16-1.89-6.38-1.8-10.79.41-21.58.83-32.37,1.24h0Z"/>
      <path class="cls-4" d="M121,17.83h0c28.5,3.19,47.62,32.75,40.49,62.57l-29.35,122.66c-6.5,27.07-32.14,43.48-57.34,36.63-25.15-6.79-40.32-34.27-33.87-61.29l29.37-122.68c5.83-24.35,27.43-40.49,50.69-37.89Z"/>
      <path class="cls-2" d="M120.67,14.35h0c27.33,3.15,45.63,32.68,38.74,62.51l-28.31,122.69c-6.27,27.08-30.88,43.52-55.04,36.71-24.11-6.76-38.62-34.22-32.4-61.24l28.34-122.72c5.62-24.36,26.36-40.53,48.67-37.95Z"/>
      <path class="cls-4" d="M94.62,58.68c.85-1.52,1.54-2.35,2.94-3.54.13-.11.26-.22.39-.32-.28.22.14-.1.2-.14.34-.24.69-.47,1.05-.69s.73-.42,1.1-.61c.19-.09.38-.18.57-.27l.23-.1c-.17.07-.18.08-.02.01.75-.29,1.5-.53,2.28-.71.41-.09.82-.18,1.23-.24-.36.05.06,0,.21-.02.21-.02.42-.04.63-.05,1.86-.11,2.78,0,4.54.54,1.29.39,2.72-.47,3.08-1.75s-.45-2.68-1.75-3.08c-7.86-2.4-16.97,1.27-21,8.43-.66,1.18-.28,2.73.9,3.42s2.76.28,3.42-.9h0Z"/>
      <path class="cls-4" d="M126.95,68.83c3.01,2.44,6.03,4.89,9.04,7.33.53.43,1.06.73,1.77.73.61,0,1.35-.27,1.77-.73.84-.91,1.08-2.66,0-3.54-3.01-2.44-6.03-4.89-9.04-7.33-.53-.43-1.06-.73-1.77-.73-.61,0-1.35.27-1.77.73-.84.91-1.08,2.66,0,3.54h0Z"/>
      <path class="cls-4" d="M96.21,83.45c.18,3.58.35,7.15.53,10.73.06,1.3,1.1,2.56,2.5,2.5,1.3-.06,2.57-1.1,2.5-2.5-.18-3.58-.35-7.15-.53-10.73-.06-1.3-1.1-2.56-2.5-2.5-1.3.06-2.57,1.1-2.5,2.5h0Z"/>
      <path class="cls-4" d="M130.63,88.54c.19,3.39.37,6.78.56,10.17.07,1.3,1.1,2.56,2.5,2.5,1.29-.06,2.58-1.1,2.5-2.5-.19-3.39-.37-6.78-.56-10.17-.07-1.3-1.1-2.56-2.5-2.5-1.29.06-2.58,1.1-2.5,2.5h0Z"/>
      <g>
        <path class="cls-4" d="M94.21,101.13c11.75,3.51,23.5,7.02,35.24,10.54,2.28,6.06.98,13.34-3.28,18.22s-11.27,7.19-17.6,5.77c-4.28-.96-8.11-3.49-11.12-6.68-6.85-7.28-9.47-18.28-6.62-27.86l3.38.02Z"/>
        <path class="cls-1" d="M120.02,134.49c3.19-3.19-8.05-11.59-12.11-13.54s-11.62-1.37-14.89,1.74c0,0,8.53,20.69,27,11.8Z"/>
      </g>
      <path class="cls-4" d="M150.75,114.46c-5.28,20.58-9.23,41.45-14.06,62.13-1.49,6.36-3.08,12.69-4.76,19-.42,1.56,2,2.22,2.41.66,5.4-20.21,9.33-40.72,13.97-61.1,1.53-6.7,3.15-13.37,4.85-20.02.4-1.56-2.01-2.22-2.41-.66h0Z"/>
      <path class="cls-3" d="M18.12,27.82h0c-2.86-6.8-10.27-10.47-17.41-8.62h0c-.68.18-1.01-.8-.36-1.07h0C7.15,15.27,10.82,7.85,8.97.71h0c-.18-.68.8-1.01,1.07-.36h0c2.86,6.8,10.27,10.47,17.41,8.62h0c.68-.18,1.01.8.36,1.07h0c-6.8,2.86-10.47,10.27-8.62,17.41h0c.18.68-.8,1.01-1.07.36Z"/>
    </g>
  </g>
</svg>